<svg width="26" height="17" viewBox="0 0 26 17" fill="none" xmlns="http://www.w3.org/2000/svg">
<g clip-path="url(#clip0_1443_2365)">
<path d="M0 0H26V17H0V0Z" fill="#009B3A"/>
<path d="M13 0.959473L23.3848 8.4852L13 16.006L2.56451 8.4852L13 0.959473Z" fill="#FEDF00"/>
<path d="M13 12.4964C15.2505 12.4964 17.0749 10.7071 17.0749 8.49991C17.0749 6.29271 15.2505 4.50342 13 4.50342C10.7495 4.50342 8.92517 6.29271 8.92517 8.49991C8.92517 10.7071 10.7495 12.4964 13 12.4964Z" fill="white"/>
<path d="M10.9423 8.23657C10.2378 8.23657 9.55358 8.34095 8.90991 8.53481C8.94032 10.717 10.7497 12.4766 12.9797 12.4766C14.3583 12.4766 15.5797 11.8006 16.3146 10.7717C15.0526 9.23072 13.1115 8.23657 10.9423 8.23657ZM16.9735 9.24563C17.0191 8.99709 17.0495 8.74358 17.0495 8.48013C17.0495 6.27312 15.2249 4.48364 12.9746 4.48364C11.297 4.48364 9.85767 5.48277 9.22921 6.89943C9.78165 6.79008 10.3493 6.73043 10.9321 6.73043C13.3041 6.7354 15.4429 7.69972 16.9735 9.24563Z" fill="#002776"/>
</g>
<defs>
<clipPath id="clip0_1443_2365">
<rect width="26" height="17" fill="white"/>
</clipPath>
</defs>
</svg>
